<?xml version="1.0" encoding="utf-8"?>
<!-- Generator: Adobe Illustrator 21.1.0, SVG Export Plug-In . SVG Version: 6.00 Build 0)  -->
<svg version="1.1" id="Layer_1" xmlns="http://www.w3.org/2000/svg" xmlns:xlink="http://www.w3.org/1999/xlink" x="0px" y="0px"
	 width="403.5px" height="97.9px" viewBox="0 0 403.5 97.9" style="enable-background:new 0 0 403.5 97.9;" xml:space="preserve">
<style type="text/css">
	.st0{fill:#5FC8D8;}
	.st1{fill:#FFFFFF;}
	.st2{fill:#F26128;}
</style>
<title>NoFlowGoNT</title>
<g>
	<circle class="st0" cx="201.7" cy="48.9" r="32.1"/>
	<g id="Layer_3">
		<path class="st1" d="M215.7,54.6c-1.1,0.7-2,1.3-4.1,1.3c-1.9,0-3-0.7-3.9-1.2l-0.2-0.1c-1-0.6-2.5-1.6-5-1.6s-4,1-5,1.6
			c-1.1,0.7-2,1.3-4.1,1.3c-2,0-3.1-0.7-4.1-1.3s-2.5-1.6-5-1.6s-4,1-5,1.6c-0.3,0.2-0.5,0.3-0.8,0.5v2c0.6-0.3,1.2-0.6,1.7-0.9
			c1.1-0.7,2-1.3,4.1-1.3c2,0,3.1,0.7,4.1,1.3s2.5,1.6,5,1.6s4-1,5-1.6c1.1-0.7,2-1.3,4.1-1.3c2,0,3.1,0.7,4.1,1.3s2.5,1.6,5,1.6
			s4-1,5-1.6c1.1-0.7,2-1.3,4.1-1.3c2,0,3.1,0.7,4.1,1.3c0,0,0,0,0.1,0V54c-1.3-0.7-2.7-1.1-4.1-1.1
			C218.2,52.9,216.7,53.9,215.7,54.6z M215.7,58.4c-1.1,0.7-2,1.3-4.1,1.3c-1.9,0-3-0.6-3.9-1.2l-0.2-0.1c-1-0.6-2.5-1.6-5-1.6
			s-4,1-5,1.6c-1.1,0.7-2,1.3-4.1,1.3c-2,0-3.1-0.7-4.1-1.3s-2.5-1.6-5-1.6s-4,1-5,1.6c-0.3,0.2-0.5,0.3-0.8,0.5v2
			c0.6-0.3,1.2-0.6,1.7-0.9c1.1-0.6,2-1.3,4.1-1.3c2,0,3.1,0.7,4.1,1.3s2.5,1.6,5,1.6s4-1,5-1.6c1.1-0.6,2-1.3,4.1-1.3
			c2,0,3.1,0.7,4.1,1.3s2.5,1.6,5,1.6s4-1,5-1.6c1.1-0.6,2-1.3,4.1-1.3c2,0,3.1,0.7,4.1,1.3c0,0,0,0,0.1,0v-2.1
			c-1.3-0.7-2.7-1.1-4.1-1.1C218.2,56.8,216.7,57.8,215.7,58.4z M220.7,49.1c-2.5,0-4,1-5,1.6c-1.1,0.6-2,1.3-4.1,1.3
			c-1.9,0-3-0.7-3.9-1.2l-0.2-0.1c-1-0.6-2.5-1.6-5-1.6s-4,1-5,1.6c-1.1,0.6-2,1.3-4.1,1.3c-2,0-3.1-0.7-4.1-1.3s-2.5-1.6-5-1.6
			s-4,1-5,1.6c-0.3,0.2-0.5,0.3-0.8,0.5v2c0.6-0.3,1.2-0.6,1.7-0.9c1.1-0.6,2-1.3,4.1-1.4c2,0,3.1,0.7,4.1,1.3s2.5,1.6,5,1.6
			s4-1,5-1.6c1.1-0.6,2-1.3,4.1-1.4c2,0,3.1,0.7,4.1,1.3s2.5,1.6,5,1.6s4-1,5-1.6c1.1-0.6,2-1.3,4.1-1.4c2,0,3.1,0.7,4.1,1.3
			c0,0,0,0,0.1,0v-2.1C223.6,49.5,222.2,49.1,220.7,49.1z"/>
		<path class="st1" d="M207.6,43.6c2.2,0.6,4.5-0.7,5.1-2.9s-0.7-4.5-2.9-5.1c-2.2-0.6-4.5,0.7-5.1,2.9l0,0
			C204,40.8,205.3,43,207.6,43.6z"/>
		<path class="st1" d="M220.9,46.3c-0.5-1-1.7-1.5-2.7-1l-3,1.4c-1.1,0.4-2.2,0.6-3.4,0.6c-2.9,0-5.7-1.3-7-3.3c0,0-0.4-0.6-0.8-1.2
			c-0.4-0.6-0.9-1.3-0.9-1.3c-3.5-5.4-10.2-7.7-16.3-5.5h-0.3l-3.1,1.4c-1,0.5-1.5,1.7-1,2.7s1.7,1.5,2.7,1l3-1.4
			c3.1-1.1,6.6-0.5,9.2,1.6l-12.8,6c2.4,0,3.9,1,4.8,1.6c1,0.6,2.1,1.3,4.1,1.4c2.1,0,3.1-0.7,4.1-1.4c1-0.6,2.5-1.6,5-1.6
			s4,1,5,1.6l0.1,0.1c1,0.6,2,1.3,4,1.3c2.1,0,3.1-0.7,4.1-1.4c1-0.6,2.5-1.6,4.8-1.6c0,0,0.4,0,0.5,0
			C221.1,47,221.1,46.6,220.9,46.3z"/>
	</g>
	<g>
		<path class="st2" d="M167.2,48.9c0-7.8,2.6-15.1,7.1-20.9L164,17.8c-7,8.5-11.2,19.3-11.2,31.1c0,11.9,4.2,22.8,11.3,31.2
			L174.4,70C169.9,64.1,167.2,56.8,167.2,48.9z"/>
		<path class="st2" d="M201.7,14.4c7.9,0,15.2,2.7,21.1,7.2L233,11.3C224.5,4.2,213.6,0,201.7,0c-11.8,0-22.6,4.2-31.1,11.2
			l10.2,10.2C186.6,17,193.9,14.4,201.7,14.4z"/>
		<path class="st2" d="M201.7,83.4c-7.8,0-14.9-2.6-20.7-6.9l-10.3,10.2c8.4,6.9,19.2,11.1,31,11.1s22.7-4.2,31.1-11.2l-10.2-10.2
			C216.8,80.8,209.6,83.4,201.7,83.4z"/>
		<path class="st2" d="M239.5,17.9l-10.2,10.3c4.3,5.8,6.9,12.9,6.9,20.7s-2.6,15.1-7.1,20.9L239.4,80c7-8.5,11.2-19.3,11.2-31.1
			S246.5,26.3,239.5,17.9z"/>
	</g>
</g>
<g>
	<path class="st2" d="M274.2,51.2v7.2h-3.7V44.3h1.1l7.3,6.9v-6.8h3.7v14h-1.1L274.2,51.2z"/>
	<path class="st2" d="M292,58.6c-3.7,0-7.2-2.4-7.2-7.3c0-4.8,3.6-7.3,7.2-7.3c3.6,0,7.1,2.4,7.1,7.3
		C299.2,55.7,296.3,58.6,292,58.6z M292,55.2c1.7,0,3.5-1.3,3.5-3.8c0-2.5-1.7-3.8-3.5-3.8c-1.8,0-3.6,1.2-3.6,3.8
		C288.5,53.9,290.2,55.2,292,55.2z"/>
	<path class="st0" d="M314.4,53.9h-4.5v4.5h-3.7v-14h8.7v3.2h-5.1v3.1h4.5V53.9z"/>
	<path class="st0" d="M320.8,55.1h5.1v3.3h-8.7v-14h3.7V55.1z"/>
	<path class="st0" d="M333.9,58.6c-3.7,0-7.2-2.4-7.2-7.3c0-4.8,3.6-7.3,7.2-7.3c3.6,0,7.1,2.4,7.1,7.3
		C341.1,55.7,338.2,58.6,333.9,58.6z M334,55.2c1.7,0,3.5-1.3,3.5-3.8c0-2.5-1.7-3.8-3.5-3.8c-1.8,0-3.6,1.2-3.6,3.8
		C330.4,53.9,332.2,55.2,334,55.2z"/>
	<path class="st0" d="M351.9,44.6l2.5,7.7h0.1l1-4.1l1.3-3.8h3.8v0.5l-5,13.6h-1.9l-2.4-6.4h-0.1l-2.3,6.4h-2l-5-13.6v-0.5h3.8
		l1.3,3.8l1.1,4.1h0.1l2.4-7.7H351.9z"/>
	<path class="st2" d="M372.7,44.2c2.8,0,5.7,1.4,6.4,4.8h-3.6c-0.6-1.1-1.5-1.5-2.9-1.5c-2.3,0-3.5,1.8-3.5,3.9
		c0,2.3,1.4,3.8,3.5,3.8c1.4,0,2.4-0.4,3-1.7h-3v-3.1h6.6c0.1,1.4,0.1,2.7-0.4,4.1c-1,2.9-3.7,4.1-6.3,4.1c-3.6,0-7.2-2.4-7.2-7.2
		C365.5,46.6,369.2,44.2,372.7,44.2z"/>
	<path class="st2" d="M388,58.6c-3.7,0-7.2-2.4-7.2-7.3c0-4.8,3.6-7.3,7.2-7.3c3.6,0,7.1,2.4,7.1,7.3
		C395.2,55.7,392.2,58.6,388,58.6z M388,55.2c1.7,0,3.5-1.3,3.5-3.8c0-2.5-1.7-3.8-3.5-3.8c-1.8,0-3.6,1.2-3.6,3.8
		C384.5,53.9,386.2,55.2,388,55.2z"/>
</g>
<g>
	<path class="st2" d="M13.2,51.2v7.2H9.5V44.3h1.1l7.3,6.9v-6.8h3.7v14h-1.1L13.2,51.2z"/>
	<path class="st2" d="M31,58.6c-3.7,0-7.2-2.4-7.2-7.3c0-4.8,3.6-7.3,7.2-7.3c3.6,0,7.1,2.4,7.1,7.3C38.2,55.7,35.3,58.6,31,58.6z
		 M31,55.2c1.7,0,3.5-1.3,3.5-3.8c0-2.5-1.7-3.8-3.5-3.8c-1.8,0-3.6,1.2-3.6,3.8C27.5,53.9,29.2,55.2,31,55.2z"/>
	<path class="st0" d="M53.4,53.9h-4.5v4.5h-3.7v-14H54v3.2h-5.1v3.1h4.5V53.9z"/>
	<path class="st0" d="M59.8,55.1h5.1v3.3h-8.7v-14h3.7V55.1z"/>
	<path class="st0" d="M72.9,58.6c-3.7,0-7.2-2.4-7.2-7.3c0-4.8,3.6-7.3,7.2-7.3c3.6,0,7.1,2.4,7.1,7.3
		C80.1,55.7,77.2,58.6,72.9,58.6z M73,55.2c1.7,0,3.5-1.3,3.5-3.8c0-2.5-1.7-3.8-3.5-3.8c-1.8,0-3.6,1.2-3.6,3.8
		C69.4,53.9,71.2,55.2,73,55.2z"/>
	<path class="st0" d="M90.9,44.6l2.5,7.7h0.1l1-4.1l1.3-3.8h3.8v0.5l-5,13.6h-1.9l-2.4-6.4h-0.1l-2.3,6.4h-2l-5-13.6v-0.5h3.8
		l1.3,3.8l1.1,4.1H87l2.4-7.7H90.9z"/>
	<path class="st2" d="M111.7,44.2c2.8,0,5.7,1.4,6.4,4.8h-3.6c-0.6-1.1-1.5-1.5-2.9-1.5c-2.3,0-3.5,1.8-3.5,3.9
		c0,2.3,1.4,3.8,3.5,3.8c1.4,0,2.4-0.4,3-1.7h-3v-3.1h6.6c0.1,1.4,0.1,2.7-0.4,4.1c-1,2.9-3.7,4.1-6.3,4.1c-3.6,0-7.2-2.4-7.2-7.2
		C104.5,46.6,108.2,44.2,111.7,44.2z"/>
	<path class="st2" d="M127,58.6c-3.7,0-7.2-2.4-7.2-7.3c0-4.8,3.6-7.3,7.2-7.3c3.6,0,7.1,2.4,7.1,7.3
		C134.2,55.7,131.2,58.6,127,58.6z M127,55.2c1.7,0,3.5-1.3,3.5-3.8c0-2.5-1.7-3.8-3.5-3.8c-1.8,0-3.6,1.2-3.6,3.8
		C123.5,53.9,125.2,55.2,127,55.2z"/>
</g>
</svg>
