<?xml version="1.0" encoding="utf-8"?>
<!-- Generator: Adobe Illustrator 21.1.0, SVG Export Plug-In . SVG Version: 6.00 Build 0)  -->
<svg version="1.1" id="Layer_1" xmlns="http://www.w3.org/2000/svg" xmlns:xlink="http://www.w3.org/1999/xlink" x="0px" y="0px"
	 width="177.5px" height="97.9px" viewBox="0 0 177.5 97.9" style="enable-background:new 0 0 177.5 97.9;" xml:space="preserve">
<style type="text/css">
	.st0{fill:#5FC8D8;}
	.st1{fill:#FFFFFF;}
	.st2{fill:#F26128;}
</style>
<title>NoFlowGoNT</title>
<g>
	<circle class="st0" cx="88.7" cy="48.9" r="32.1"/>
	<g id="Layer_3">
		<path class="st1" d="M102.7,54.6c-1.1,0.7-2,1.3-4.1,1.3c-1.9,0-3-0.7-3.9-1.2l-0.2-0.1c-1-0.6-2.5-1.6-5-1.6c-2.5,0-4,1-5,1.6
			c-1.1,0.7-2,1.3-4.1,1.3c-2,0-3.1-0.7-4.1-1.3c-1-0.6-2.5-1.6-5-1.6c-2.5,0-4,1-5,1.6c-0.3,0.2-0.5,0.3-0.8,0.5v2
			c0.6-0.3,1.2-0.6,1.7-0.9c1.1-0.7,2-1.3,4.1-1.3c2,0,3.1,0.7,4.1,1.3c1,0.6,2.5,1.6,5,1.6c2.5,0,4-1,5-1.6c1.1-0.7,2-1.3,4.1-1.3
			c2,0,3.1,0.7,4.1,1.3c1,0.6,2.5,1.6,5,1.6c2.5,0,4-1,5-1.6c1.1-0.7,2-1.3,4.1-1.3c2,0,3.1,0.7,4.1,1.3c0,0,0,0,0.1,0V54
			c-1.3-0.7-2.7-1.1-4.1-1.1C105.2,52.9,103.7,53.9,102.7,54.6z M102.7,58.4c-1.1,0.7-2,1.3-4.1,1.3c-1.9,0-3-0.6-3.9-1.2l-0.2-0.1
			c-1-0.6-2.5-1.6-5-1.6c-2.5,0-4,1-5,1.6c-1.1,0.7-2,1.3-4.1,1.3c-2,0-3.1-0.7-4.1-1.3c-1-0.6-2.5-1.6-5-1.6c-2.5,0-4,1-5,1.6
			c-0.3,0.2-0.5,0.3-0.8,0.5v2c0.6-0.3,1.2-0.6,1.7-0.9c1.1-0.6,2-1.3,4.1-1.3c2,0,3.1,0.7,4.1,1.3c1,0.6,2.5,1.6,5,1.6
			c2.5,0,4-1,5-1.6c1.1-0.6,2-1.3,4.1-1.3c2,0,3.1,0.7,4.1,1.3c1,0.6,2.5,1.6,5,1.6c2.5,0,4-1,5-1.6c1.1-0.6,2-1.3,4.1-1.3
			c2,0,3.1,0.7,4.1,1.3c0,0,0,0,0.1,0v-2.1c-1.3-0.7-2.7-1.1-4.1-1.1C105.2,56.8,103.7,57.8,102.7,58.4z M107.7,49.1
			c-2.5,0-4,1-5,1.6c-1.1,0.6-2,1.3-4.1,1.3c-1.9,0-3-0.7-3.9-1.2l-0.2-0.1c-1-0.6-2.5-1.6-5-1.6c-2.5,0-4,1-5,1.6
			c-1.1,0.6-2,1.3-4.1,1.3c-2,0-3.1-0.7-4.1-1.3c-1-0.6-2.5-1.6-5-1.6c-2.5,0-4,1-5,1.6c-0.3,0.2-0.5,0.3-0.8,0.5v2
			c0.6-0.3,1.2-0.6,1.7-0.9c1.1-0.6,2-1.3,4.1-1.4c2,0,3.1,0.7,4.1,1.3c1,0.6,2.5,1.6,5,1.6c2.5,0,4-1,5-1.6c1.1-0.6,2-1.3,4.1-1.4
			c2,0,3.1,0.7,4.1,1.3c1,0.6,2.5,1.6,5,1.6c2.5,0,4-1,5-1.6c1.1-0.6,2-1.3,4.1-1.4c2,0,3.1,0.7,4.1,1.3c0,0,0,0,0.1,0v-2.1
			C110.6,49.5,109.2,49.1,107.7,49.1z"/>
		<path class="st1" d="M94.6,43.6c2.2,0.6,4.5-0.7,5.1-2.9c0.6-2.2-0.7-4.5-2.9-5.1s-4.5,0.7-5.1,2.9c0,0,0,0,0,0
			C91,40.8,92.3,43,94.6,43.6z"/>
		<path class="st1" d="M107.9,46.3c-0.5-1-1.7-1.5-2.7-1l-3,1.4c-1.1,0.4-2.2,0.6-3.4,0.6c-2.9,0-5.7-1.3-7-3.3c0,0-0.4-0.6-0.8-1.2
			c-0.4-0.6-0.9-1.3-0.9-1.3c-3.5-5.4-10.2-7.7-16.3-5.5L73.5,36l-3.1,1.4c-1,0.5-1.5,1.7-1,2.7c0.5,1,1.7,1.5,2.7,1l3-1.4
			c3.1-1.1,6.6-0.5,9.2,1.6l-12.8,6c2.4,0,3.9,1,4.8,1.6c1,0.6,2.1,1.3,4.1,1.4c2.1,0,3.1-0.7,4.1-1.4c1-0.6,2.5-1.6,5-1.6
			c2.5,0,4,1,5,1.6l0.1,0.1c1,0.6,2,1.3,4,1.3c2.1,0,3.1-0.7,4.1-1.4c1-0.6,2.5-1.6,4.8-1.6c0,0,0.4,0,0.5,0
			C108.1,47,108.1,46.6,107.9,46.3z"/>
	</g>
	<g>
		<path class="st2" d="M54.2,48.9c0-7.8,2.6-15.1,7.1-20.9L51,17.8c-7,8.5-11.2,19.3-11.2,31.1c0,11.9,4.2,22.8,11.3,31.2L61.4,70
			C56.9,64.1,54.2,56.8,54.2,48.9z"/>
		<path class="st2" d="M88.7,14.4c7.9,0,15.2,2.7,21.1,7.2L120,11.3C111.5,4.2,100.6,0,88.7,0C76.9,0,66.1,4.2,57.6,11.2l10.2,10.2
			C73.6,17,80.9,14.4,88.7,14.4z"/>
		<path class="st2" d="M88.7,83.4c-7.8,0-14.9-2.6-20.7-6.9L57.7,86.7c8.4,6.9,19.2,11.1,31,11.1c11.8,0,22.7-4.2,31.1-11.2
			l-10.2-10.2C103.8,80.8,96.6,83.4,88.7,83.4z"/>
		<path class="st2" d="M126.5,17.9l-10.2,10.3c4.3,5.8,6.9,12.9,6.9,20.7c0,7.8-2.6,15.1-7.1,20.9L126.4,80
			c7-8.5,11.2-19.3,11.2-31.1C137.6,37.1,133.5,26.3,126.5,17.9z"/>
	</g>
</g>
</svg>
